<svg width="80" height="62" viewBox="0 0 80 62" fill="none" xmlns="http://www.w3.org/2000/svg">
<path d="M35.0061 8.72377C35.0061 10.4095 34.6489 11.716 33.9345 12.6431C33.2622 13.5703 32.3588 14.0339 31.2242 14.0339C30.636 14.0339 30.1317 13.9285 29.7115 13.7178C29.3333 13.5071 28.9341 13.1699 28.5139 12.7064C29.1022 12.2849 29.5434 11.6738 29.8376 10.8731C30.1737 10.0724 30.3418 9.22949 30.3418 8.34447C30.3418 7.62803 30.2158 6.91158 29.9636 6.19514C29.7535 5.47869 29.3964 4.84654 28.8921 4.29867C28.3879 3.70865 27.7576 3.24507 27.0012 2.90792C26.2449 2.52863 25.3414 2.33898 24.2909 2.33898C23.1984 2.33898 22.2109 2.5497 21.3285 2.97114C20.4881 3.35043 19.7737 3.8983 19.1855 4.61475C18.6392 5.28905 18.219 6.08978 17.9249 7.01694C17.6307 7.94411 17.4836 8.93448 17.4836 9.98808C17.4836 12.011 17.9669 13.6335 18.9333 14.8557C19.9418 16.0779 21.1814 17.1104 22.6521 17.9533C24.1228 18.7961 25.7196 19.5969 27.4424 20.3555C29.2073 21.114 30.8251 22.0623 32.2958 23.2002C33.7665 24.2959 34.9851 25.7077 35.9515 27.4356C36.96 29.1214 37.4642 31.3761 37.4642 34.1997C37.4642 36.7283 37.044 38.8987 36.2036 40.7109C35.3632 42.4809 34.2497 43.9138 32.863 45.0096C31.5184 46.1053 29.9636 46.906 28.1988 47.4118C26.4339 47.9175 24.6271 48.1704 22.7782 48.1704C21.1394 48.1704 19.5216 47.9807 17.9249 47.6014C16.3281 47.2221 14.8994 46.6321 13.6388 45.8314C12.3782 44.9885 11.3487 43.9349 10.5503 42.6706C9.79394 41.3641 9.41576 39.8048 9.41576 37.9926C9.41576 36.939 9.56283 35.8644 9.85697 34.7686C10.1511 33.6729 10.5713 32.6825 11.1176 31.7975C11.7059 30.9125 12.4202 30.196 13.2606 29.6482C14.143 29.0581 15.1515 28.7631 16.2861 28.7631C17.2105 28.7631 17.9879 29.016 18.6182 29.5217C19.2905 30.0275 19.8788 30.9757 20.383 32.3664C19.3745 32.4086 18.5341 32.6193 17.8618 32.9986C17.2315 33.3779 16.7273 33.8415 16.3491 34.3893C15.9709 34.9372 15.6978 35.5272 15.5297 36.1594C15.4036 36.7915 15.3406 37.3815 15.3406 37.9294C15.3406 39.0673 15.5927 40.0577 16.097 40.9005C16.6012 41.7434 17.2315 42.4599 17.9879 43.0499C18.7863 43.5978 19.6267 44.0192 20.5091 44.3142C21.4335 44.5671 22.316 44.6935 23.1564 44.6935C25.0893 44.6935 26.6861 43.956 27.9467 42.4809C29.2073 41.0059 29.8376 38.8776 29.8376 36.0962C29.8376 33.7361 29.3754 31.8818 28.4509 30.5332C27.5685 29.1424 26.4339 27.9835 25.0473 27.0563C23.6606 26.1292 22.1689 25.3284 20.5721 24.6541C19.0174 23.9798 17.5467 23.1791 16.16 22.2519C14.7733 21.3248 13.6178 20.1447 12.6933 18.7118C11.8109 17.2368 11.3697 15.2771 11.3697 12.8328C11.3697 10.7256 11.7269 8.87127 12.4412 7.2698C13.1556 5.66834 14.08 4.34081 15.2145 3.28722C16.3911 2.19148 17.7358 1.39075 19.2485 0.885019C20.8032 0.337152 22.4 0.0632186 24.0388 0.0632186C24.7531 0.0632186 25.7196 0.147505 26.9382 0.316078C28.1988 0.484654 29.4174 0.863948 30.5939 1.45396C31.8125 2.04397 32.842 2.92899 33.6824 4.10902C34.5649 5.2469 35.0061 6.78515 35.0061 8.72377Z" fill="#ED028C"/>
<path d="M68.2408 6.57443C66.8961 6.57443 65.5095 6.46907 64.0808 6.25835C62.6941 6.00549 61.2864 5.73156 59.8577 5.43655V19.9129H69.1862V23.6427H59.8577V47.4118H53.0505V4.29867C52.8404 4.25652 52.6303 4.23545 52.4202 4.23545C52.2521 4.23545 52.063 4.23545 51.8529 4.23545C50.7604 4.23545 49.7309 4.38296 48.7644 4.67796C47.7979 4.97297 46.9575 5.47869 46.2432 6.19514C45.5709 6.91158 45.0246 7.88089 44.6044 9.10306C44.2262 10.2831 44.0371 11.7792 44.0371 13.5914C44.0371 15.8671 44.3103 17.7847 44.8565 19.344C45.4448 20.8612 46.1171 21.9358 46.8735 22.568C41.8731 22.568 39.3729 19.8076 39.3729 14.2867C39.3729 12.2638 39.709 10.3884 40.3814 8.66055C41.0537 6.93265 42.1042 5.43655 43.5329 4.17224C44.9616 2.86578 46.7684 1.85433 48.9535 1.13788C51.1806 0.379294 53.8278 0 56.8953 0C57.9458 0 58.9333 0.0421445 59.8577 0.126434C60.8242 0.21072 61.7486 0.295008 62.6311 0.379297C63.5135 0.463583 64.4169 0.547871 65.3414 0.63216C66.2658 0.716447 67.2533 0.75859 68.3038 0.75859C69.3543 0.75859 70.3418 0.716447 71.2662 0.63216C72.1907 0.505728 73.0731 0.295008 73.9135 0C73.8295 1.47503 73.6194 2.65506 73.2832 3.54008C72.989 4.38296 72.5899 5.03618 72.0856 5.49977C71.5814 5.9212 70.9931 6.21621 70.3208 6.38478C69.6905 6.51122 68.9971 6.57443 68.2408 6.57443Z" fill="#ED028C"/>
<path d="M0 58.3529L29.0909 55.1945V61.5114L0 58.3529Z" fill="#ED028C"/>
<path d="M80 58.3529L50.9091 61.5114V55.1945L80 58.3529Z" fill="#ED028C"/>
<path d="M33.9394 58.3529C33.9394 59.0243 33.3967 59.5686 32.7273 59.5686C32.0578 59.5686 31.5152 59.0243 31.5152 58.3529C31.5152 57.6815 32.0578 57.1373 32.7273 57.1373C33.3967 57.1373 33.9394 57.6815 33.9394 58.3529Z" fill="#ED028C"/>
<path d="M48.3879 58.3043C48.3879 58.9489 47.8669 59.4714 47.2242 59.4714C46.5816 59.4714 46.0606 58.9489 46.0606 58.3043C46.0606 57.6598 46.5816 57.1373 47.2242 57.1373C47.8669 57.1373 48.3879 57.6598 48.3879 58.3043Z" fill="#ED028C"/>
<path d="M43.6364 58.3529C43.6364 60.3672 42.0083 62 40 62C37.9917 62 36.3636 60.3672 36.3636 58.3529C36.3636 56.3387 37.9917 54.7059 40 54.7059C42.0083 54.7059 43.6364 56.3387 43.6364 58.3529Z" fill="#ED028C"/>
</svg>
