<svg width="225" height="48" viewBox="0 0 225 48" fill="none" xmlns="http://www.w3.org/2000/svg">
<path d="M15.84 4.968C15.84 5.928 15.636 6.672 15.228 7.2C14.844 7.728 14.328 7.992 13.68 7.992C13.344 7.992 13.056 7.932 12.816 7.812C12.6 7.692 12.372 7.5 12.132 7.236C12.468 6.996 12.72 6.648 12.888 6.192C13.08 5.736 13.176 5.256 13.176 4.752C13.176 4.344 13.104 3.936 12.96 3.528C12.84 3.12 12.636 2.76 12.348 2.448C12.06 2.112 11.7 1.848 11.268 1.656C10.836 1.44 10.32 1.332 9.72 1.332C9.096 1.332 8.532 1.452 8.028 1.692C7.548 1.908 7.14 2.22 6.804 2.628C6.492 3.012 6.252 3.468 6.084 3.996C5.916 4.524 5.832 5.088 5.832 5.688C5.832 6.84 6.108 7.764 6.66 8.46C7.236 9.156 7.944 9.744 8.784 10.224C9.624 10.704 10.536 11.16 11.52 11.592C12.528 12.024 13.452 12.564 14.292 13.212C15.132 13.836 15.828 14.64 16.38 15.624C16.956 16.584 17.244 17.868 17.244 19.476C17.244 20.916 17.004 22.152 16.524 23.184C16.044 24.192 15.408 25.008 14.616 25.632C13.848 26.256 12.96 26.712 11.952 27C10.944 27.288 9.912 27.432 8.856 27.432C7.92 27.432 6.996 27.324 6.084 27.108C5.172 26.892 4.356 26.556 3.636 26.1C2.916 25.62 2.328 25.02 1.872 24.3C1.44 23.556 1.224 22.668 1.224 21.636C1.224 21.036 1.308 20.424 1.476 19.8C1.644 19.176 1.884 18.612 2.196 18.108C2.532 17.604 2.94 17.196 3.42 16.884C3.924 16.548 4.5 16.38 5.148 16.38C5.676 16.38 6.12 16.524 6.48 16.812C6.864 17.1 7.2 17.64 7.488 18.432C6.912 18.456 6.432 18.576 6.048 18.792C5.688 19.008 5.4 19.272 5.184 19.584C4.968 19.896 4.812 20.232 4.716 20.592C4.644 20.952 4.608 21.288 4.608 21.6C4.608 22.248 4.752 22.812 5.04 23.292C5.328 23.772 5.688 24.18 6.12 24.516C6.576 24.828 7.056 25.068 7.56 25.236C8.088 25.38 8.592 25.452 9.072 25.452C10.176 25.452 11.088 25.032 11.808 24.192C12.528 23.352 12.888 22.14 12.888 20.556C12.888 19.212 12.624 18.156 12.096 17.388C11.592 16.596 10.944 15.936 10.152 15.408C9.36 14.88 8.508 14.424 7.596 14.04C6.708 13.656 5.868 13.2 5.076 12.672C4.284 12.144 3.624 11.472 3.096 10.656C2.592 9.816 2.34 8.7 2.34 7.308C2.34 6.108 2.544 5.052 2.952 4.14C3.36 3.228 3.888 2.472 4.536 1.872C5.208 1.248 5.976 0.792001 6.84 0.504C7.728 0.192001 8.64 0.0360017 9.576 0.0360017C9.984 0.0360017 10.536 0.0840011 11.232 0.18C11.952 0.276 12.648 0.492 13.32 0.828C14.016 1.164 14.604 1.668 15.084 2.34C15.588 2.988 15.84 3.864 15.84 4.968Z" fill="#ED028C"/>
<path d="M31.5779 9V21.24C31.5779 21.528 31.5899 21.864 31.6139 22.248C31.6379 22.608 31.6979 22.956 31.7939 23.292C31.9139 23.628 32.0819 23.916 32.2979 24.156C32.5379 24.372 32.8739 24.48 33.3059 24.48C33.4979 24.48 33.7019 24.456 33.9179 24.408C34.1579 24.36 34.3499 24.312 34.4939 24.264C34.5179 24.384 34.5299 24.492 34.5299 24.588C34.5539 24.684 34.5659 24.792 34.5659 24.912C34.5659 25.632 34.2899 26.196 33.7379 26.604C33.1859 27.012 32.5619 27.216 31.8659 27.216C31.1219 27.216 30.4499 26.964 29.8499 26.46C29.2499 25.932 28.8419 25.056 28.6259 23.832C28.1699 25.008 27.5699 25.872 26.8259 26.424C26.0819 26.952 25.3019 27.216 24.4859 27.216C23.7899 27.216 23.1299 27.12 22.5059 26.928C21.8819 26.736 21.3419 26.424 20.8859 25.992C20.4299 25.536 20.0699 24.96 19.8059 24.264C19.5419 23.544 19.4099 22.668 19.4099 21.636V9H23.0099V21.24C23.0099 22.416 23.2139 23.256 23.6219 23.76C24.0299 24.24 24.5459 24.48 25.1699 24.48C25.5059 24.48 25.8419 24.396 26.1779 24.228C26.5139 24.036 26.8139 23.772 27.0779 23.436C27.3419 23.1 27.5579 22.692 27.7259 22.212C27.8939 21.732 27.9779 21.18 27.9779 20.556V9H31.5779Z" fill="#ED028C"/>
<path d="M47.8418 23.94C47.6498 23.892 47.4938 23.772 47.3738 23.58C47.2538 23.388 47.1938 23.196 47.1938 23.004C47.1938 22.62 47.3378 22.332 47.6258 22.14C47.9378 21.924 48.2858 21.816 48.6698 21.816C49.1977 21.816 49.6778 21.996 50.1098 22.356C50.5418 22.716 50.7578 23.244 50.7578 23.94C50.7578 24.3 50.6617 24.66 50.4697 25.02C50.2777 25.38 50.0018 25.704 49.6418 25.992C49.2818 26.28 48.8498 26.52 48.3458 26.712C47.8418 26.904 47.2778 27 46.6538 27H37.2218L44.9977 10.944H41.9018C41.3738 10.944 40.8938 10.98 40.4618 11.052C40.0538 11.1 39.8498 11.232 39.8498 11.448C39.8498 11.688 39.9458 11.88 40.1378 12.024C40.3538 12.168 40.4618 12.36 40.4618 12.6C40.4618 12.864 40.3058 13.116 39.9938 13.356C39.7058 13.596 39.3218 13.716 38.8418 13.716C38.1698 13.716 37.6538 13.464 37.2938 12.96C36.9578 12.432 36.7897 11.82 36.7897 11.124C36.7897 10.5 37.0537 9.996 37.5817 9.612C38.1337 9.204 39.1057 9 40.4977 9H49.4258L41.7218 24.48C41.8658 24.48 42.1418 24.492 42.5498 24.516C42.9818 24.54 43.4378 24.564 43.9178 24.588C44.3978 24.612 44.8658 24.636 45.3218 24.66C45.7778 24.684 46.1258 24.696 46.3658 24.696C46.7978 24.696 47.1338 24.624 47.3738 24.48C47.6378 24.336 47.7938 24.156 47.8418 23.94Z" fill="#ED028C"/>
<path d="M64.44 9V21.24C64.44 21.48 64.452 21.78 64.476 22.14C64.5 22.5 64.56 22.86 64.656 23.22C64.776 23.556 64.944 23.856 65.16 24.12C65.376 24.36 65.676 24.48 66.06 24.48C67.236 24.48 68.1 23.172 68.652 20.556H69.984C69.72 22.068 69.384 23.268 68.976 24.156C68.568 25.02 68.136 25.68 67.68 26.136C67.224 26.592 66.756 26.88 66.276 27C65.796 27.144 65.364 27.216 64.98 27.216C64.428 27.216 63.948 27.12 63.54 26.928C63.156 26.736 62.82 26.484 62.532 26.172C62.268 25.86 62.052 25.5 61.884 25.092C61.716 24.684 61.584 24.252 61.488 23.796C61.128 24.732 60.54 25.536 59.724 26.208C58.932 26.88 57.96 27.216 56.808 27.216C56.088 27.216 55.356 27.072 54.612 26.784C53.892 26.496 53.232 26.028 52.632 25.38C52.056 24.708 51.576 23.856 51.192 22.824C50.832 21.768 50.652 20.484 50.652 18.972C50.652 17.868 50.772 16.716 51.012 15.516C51.276 14.316 51.684 13.224 52.236 12.24C52.788 11.256 53.496 10.44 54.36 9.792C55.224 9.144 56.268 8.82 57.492 8.82C57.78 8.82 58.08 8.856 58.392 8.928C58.728 8.976 59.04 9.072 59.328 9.216C59.64 9.36 59.928 9.564 60.192 9.828C60.456 10.068 60.672 10.368 60.84 10.728V9H64.44ZM57.708 24.48C58.068 24.48 58.428 24.384 58.788 24.192C59.172 23.976 59.508 23.7 59.796 23.364C60.108 23.004 60.36 22.584 60.552 22.104C60.744 21.624 60.84 21.108 60.84 20.556V12.348C60.672 11.964 60.408 11.616 60.048 11.304C59.712 10.968 59.268 10.8 58.716 10.8C57.948 10.8 57.288 11.064 56.736 11.592C56.184 12.096 55.74 12.744 55.404 13.536C55.068 14.304 54.816 15.156 54.648 16.092C54.504 17.004 54.432 17.88 54.432 18.72C54.432 20.784 54.708 22.26 55.26 23.148C55.836 24.036 56.652 24.48 57.708 24.48Z" fill="#ED028C"/>
<path d="M72.2287 9V11.736C72.5887 11.088 72.9487 10.572 73.3087 10.188C73.6927 9.78 74.0767 9.48 74.4607 9.288C74.8447 9.096 75.2047 8.976 75.5407 8.928C75.9007 8.856 76.2367 8.82 76.5487 8.82C77.6287 8.82 78.4927 9.024 79.1407 9.432C79.8127 9.84 80.3167 10.368 80.6527 11.016C80.9887 11.64 81.2047 12.336 81.3007 13.104C81.4207 13.848 81.4807 14.568 81.4807 15.264C81.4807 15.696 81.4687 16.176 81.4447 16.704C81.4207 17.208 81.3967 17.736 81.3727 18.288C81.3487 18.816 81.3247 19.356 81.3007 19.908C81.2767 20.436 81.2647 20.928 81.2647 21.384C81.2647 21.576 81.2767 21.852 81.3007 22.212C81.3247 22.548 81.3847 22.884 81.4807 23.22C81.5767 23.556 81.7327 23.856 81.9487 24.12C82.1647 24.36 82.4767 24.48 82.8847 24.48C83.4367 24.48 83.9287 24.168 84.3607 23.544C84.8167 22.92 85.1887 21.924 85.4767 20.556H86.8087C86.5447 22.068 86.2087 23.268 85.8007 24.156C85.3927 25.02 84.9607 25.68 84.5047 26.136C84.0487 26.592 83.5927 26.88 83.1367 27C82.6807 27.144 82.2607 27.216 81.8767 27.216C81.1087 27.216 80.4607 27.072 79.9327 26.784C79.4047 26.472 78.9727 26.064 78.6367 25.56C78.3007 25.056 78.0487 24.468 77.8807 23.796C77.7367 23.124 77.6647 22.428 77.6647 21.708C77.6647 21.492 77.6647 21.096 77.6647 20.52C77.6887 19.92 77.7007 19.284 77.7007 18.612C77.7247 17.94 77.7367 17.304 77.7367 16.704C77.7607 16.104 77.7727 15.684 77.7727 15.444C77.7727 14.676 77.7127 14.04 77.5927 13.536C77.4727 13.032 77.3047 12.636 77.0887 12.348C76.8727 12.06 76.6207 11.856 76.3327 11.736C76.0687 11.616 75.7807 11.556 75.4687 11.556C74.7247 11.556 74.0767 11.856 73.5247 12.456C72.9967 13.056 72.5647 14.064 72.2287 15.48V27H68.6287V9H72.2287Z" fill="#ED028C"/>
<path d="M98.7173 9V21.24C98.7173 21.528 98.7293 21.864 98.7533 22.248C98.7773 22.608 98.8373 22.956 98.9333 23.292C99.0533 23.628 99.2213 23.916 99.4373 24.156C99.6773 24.372 100.013 24.48 100.445 24.48C100.637 24.48 100.841 24.456 101.057 24.408C101.297 24.36 101.489 24.312 101.633 24.264C101.657 24.384 101.669 24.492 101.669 24.588C101.693 24.684 101.705 24.792 101.705 24.912C101.705 25.632 101.429 26.196 100.877 26.604C100.325 27.012 99.7013 27.216 99.0053 27.216C98.2613 27.216 97.5893 26.964 96.9893 26.46C96.3893 25.932 95.9813 25.056 95.7653 23.832C95.4053 24.768 94.8173 25.572 94.0013 26.244C93.1853 26.892 92.2013 27.216 91.0493 27.216C90.3293 27.216 89.5973 27.072 88.8533 26.784C88.1333 26.472 87.4853 25.992 86.9093 25.344C86.3333 24.696 85.8533 23.856 85.4693 22.824C85.1093 21.792 84.9293 20.544 84.9293 19.08C84.9293 17.952 85.0493 16.788 85.2893 15.588C85.5533 14.364 85.9493 13.26 86.4773 12.276C87.0293 11.268 87.7373 10.44 88.6013 9.792C89.4653 9.144 90.4973 8.82 91.6973 8.82C92.3213 8.82 92.9573 8.952 93.6053 9.216C94.2773 9.48 94.7813 9.984 95.1173 10.728V9H98.7173ZM91.8053 24.48C92.2613 24.48 92.6933 24.372 93.1013 24.156C93.5093 23.94 93.8573 23.652 94.1453 23.292C94.4573 22.932 94.6973 22.524 94.8653 22.068C95.0333 21.588 95.1173 21.084 95.1173 20.556V12.348C94.9493 11.94 94.6973 11.58 94.3613 11.268C94.0253 10.956 93.5453 10.8 92.9213 10.8C92.1533 10.8 91.5053 11.064 90.9773 11.592C90.4493 12.096 90.0173 12.744 89.6813 13.536C89.3453 14.328 89.0933 15.216 88.9253 16.2C88.7813 17.16 88.7093 18.084 88.7093 18.972C88.7093 20.916 89.0093 22.32 89.6093 23.184C90.2093 24.048 90.9413 24.48 91.8053 24.48Z" fill="#ED028C"/>
<path d="M122.257 27L119.053 8.496L116.137 27H113.977L117.937 1.8C116.425 2.136 115.261 2.868 114.445 3.996C113.629 5.1 113.221 6.66 113.221 8.676C113.221 9.492 113.269 10.164 113.365 10.692C113.485 11.196 113.617 11.604 113.761 11.916C113.905 12.228 114.049 12.456 114.193 12.6C114.361 12.72 114.481 12.804 114.553 12.852C113.257 12.852 112.213 12.528 111.421 11.88C110.629 11.208 110.233 10.164 110.233 8.748C110.233 7.572 110.521 6.456 111.097 5.4C111.673 4.32 112.405 3.384 113.293 2.592C114.181 1.8 115.153 1.176 116.209 0.720001C117.289 0.24 118.333 0 119.341 0C119.725 0 120.097 0.0360003 120.457 0.108001C120.841 0.180001 121.201 0.312001 121.537 0.504L125.137 21.42L129.349 0.504H133.453L135.469 27H131.365L129.925 8.136L126.109 27H122.257Z" fill="#ED028C"/>
<path d="M151.487 9V21.24C151.487 21.48 151.499 21.78 151.523 22.14C151.547 22.5 151.607 22.86 151.703 23.22C151.823 23.556 151.991 23.856 152.207 24.12C152.423 24.36 152.723 24.48 153.107 24.48C154.283 24.48 155.147 23.172 155.699 20.556H157.031C156.767 22.068 156.431 23.268 156.023 24.156C155.615 25.02 155.183 25.68 154.727 26.136C154.271 26.592 153.803 26.88 153.323 27C152.843 27.144 152.411 27.216 152.027 27.216C151.475 27.216 150.995 27.12 150.587 26.928C150.203 26.736 149.867 26.484 149.579 26.172C149.315 25.86 149.099 25.5 148.931 25.092C148.763 24.684 148.631 24.252 148.535 23.796C148.175 24.732 147.587 25.536 146.771 26.208C145.979 26.88 145.007 27.216 143.855 27.216C143.135 27.216 142.403 27.072 141.659 26.784C140.939 26.496 140.279 26.028 139.679 25.38C139.103 24.708 138.623 23.856 138.239 22.824C137.879 21.768 137.699 20.484 137.699 18.972C137.699 17.868 137.819 16.716 138.059 15.516C138.323 14.316 138.731 13.224 139.283 12.24C139.835 11.256 140.543 10.44 141.407 9.792C142.271 9.144 143.315 8.82 144.539 8.82C144.827 8.82 145.127 8.856 145.439 8.928C145.775 8.976 146.087 9.072 146.375 9.216C146.687 9.36 146.975 9.564 147.239 9.828C147.503 10.068 147.719 10.368 147.887 10.728V9H151.487ZM144.755 24.48C145.115 24.48 145.475 24.384 145.835 24.192C146.219 23.976 146.555 23.7 146.843 23.364C147.155 23.004 147.407 22.584 147.599 22.104C147.791 21.624 147.887 21.108 147.887 20.556V12.348C147.719 11.964 147.455 11.616 147.095 11.304C146.759 10.968 146.315 10.8 145.763 10.8C144.995 10.8 144.335 11.064 143.783 11.592C143.231 12.096 142.787 12.744 142.451 13.536C142.115 14.304 141.863 15.156 141.695 16.092C141.551 17.004 141.479 17.88 141.479 18.72C141.479 20.784 141.755 22.26 142.307 23.148C142.883 24.036 143.699 24.48 144.755 24.48Z" fill="#ED028C"/>
<path d="M159.276 9V12.024C159.564 11.592 159.84 11.184 160.104 10.8C160.392 10.416 160.704 10.08 161.04 9.792C161.376 9.504 161.748 9.276 162.156 9.108C162.564 8.916 163.02 8.82 163.524 8.82C164.34 8.82 164.94 9.036 165.324 9.468C165.708 9.876 165.9 10.38 165.9 10.98C165.9 11.34 165.84 11.64 165.72 11.88C165.6 12.12 165.456 12.312 165.288 12.456C165.12 12.6 164.94 12.708 164.748 12.78C164.556 12.828 164.388 12.852 164.244 12.852C164.028 12.852 163.848 12.804 163.704 12.708C163.584 12.612 163.452 12.516 163.308 12.42C163.188 12.3 163.044 12.192 162.876 12.096C162.708 12 162.492 11.952 162.228 11.952C161.676 11.952 161.148 12.144 160.644 12.528C160.14 12.912 159.684 13.32 159.276 13.752V27H155.676V9H159.276Z" fill="#ED028C"/>
<path d="M171.405 9V21.24C171.405 21.48 171.417 21.78 171.441 22.14C171.465 22.5 171.525 22.86 171.621 23.22C171.741 23.556 171.909 23.856 172.125 24.12C172.341 24.36 172.641 24.48 173.025 24.48C174.201 24.48 175.065 23.172 175.617 20.556H176.949C176.685 22.068 176.349 23.268 175.941 24.156C175.533 25.02 175.101 25.68 174.645 26.136C174.189 26.592 173.721 26.88 173.241 27C172.761 27.144 172.329 27.216 171.945 27.216C171.105 27.216 170.421 27.06 169.893 26.748C169.365 26.412 168.945 25.992 168.633 25.488C168.321 24.984 168.105 24.42 167.985 23.796C167.865 23.172 167.805 22.572 167.805 21.996V9H171.405ZM167.157 3.816C167.157 3.168 167.385 2.604 167.841 2.124C168.297 1.644 168.861 1.404 169.533 1.404C170.181 1.404 170.745 1.644 171.225 2.124C171.705 2.604 171.945 3.168 171.945 3.816C171.945 4.488 171.705 5.052 171.225 5.508C170.745 5.964 170.181 6.192 169.533 6.192C168.861 6.192 168.297 5.964 167.841 5.508C167.385 5.052 167.157 4.488 167.157 3.816Z" fill="#ED028C"/>
<path d="M179.174 9V11.736C179.534 11.088 179.894 10.572 180.254 10.188C180.638 9.78 181.022 9.48 181.406 9.288C181.79 9.096 182.15 8.976 182.486 8.928C182.846 8.856 183.182 8.82 183.494 8.82C184.574 8.82 185.438 9.024 186.086 9.432C186.758 9.84 187.262 10.368 187.598 11.016C187.934 11.64 188.15 12.336 188.246 13.104C188.366 13.848 188.426 14.568 188.426 15.264C188.426 15.696 188.414 16.176 188.39 16.704C188.366 17.208 188.342 17.736 188.318 18.288C188.294 18.816 188.27 19.356 188.246 19.908C188.222 20.436 188.21 20.928 188.21 21.384C188.21 21.576 188.222 21.852 188.246 22.212C188.27 22.548 188.33 22.884 188.426 23.22C188.522 23.556 188.678 23.856 188.894 24.12C189.11 24.36 189.422 24.48 189.83 24.48C190.382 24.48 190.874 24.168 191.306 23.544C191.762 22.92 192.134 21.924 192.422 20.556H193.754C193.49 22.068 193.154 23.268 192.746 24.156C192.338 25.02 191.906 25.68 191.45 26.136C190.994 26.592 190.538 26.88 190.082 27C189.626 27.144 189.206 27.216 188.822 27.216C188.054 27.216 187.406 27.072 186.878 26.784C186.35 26.472 185.918 26.064 185.582 25.56C185.246 25.056 184.994 24.468 184.826 23.796C184.682 23.124 184.61 22.428 184.61 21.708C184.61 21.492 184.61 21.096 184.61 20.52C184.634 19.92 184.646 19.284 184.646 18.612C184.67 17.94 184.682 17.304 184.682 16.704C184.706 16.104 184.718 15.684 184.718 15.444C184.718 14.676 184.658 14.04 184.538 13.536C184.418 13.032 184.25 12.636 184.034 12.348C183.818 12.06 183.566 11.856 183.278 11.736C183.014 11.616 182.726 11.556 182.414 11.556C181.67 11.556 181.022 11.856 180.47 12.456C179.942 13.056 179.51 14.064 179.174 15.48V27H175.574V9H179.174Z" fill="#ED028C"/>
<path d="M195.979 1.8V11.736C196.339 11.088 196.699 10.572 197.059 10.188C197.443 9.78 197.827 9.48 198.211 9.288C198.595 9.096 198.955 8.976 199.291 8.928C199.651 8.856 199.987 8.82 200.299 8.82C201.379 8.82 202.243 9.024 202.891 9.432C203.563 9.84 204.067 10.368 204.403 11.016C204.739 11.64 204.955 12.336 205.051 13.104C205.171 13.848 205.231 14.568 205.231 15.264C205.231 15.696 205.219 16.176 205.195 16.704C205.171 17.208 205.147 17.736 205.123 18.288C205.099 18.816 205.075 19.356 205.051 19.908C205.027 20.436 205.015 20.928 205.015 21.384C205.015 21.576 205.027 21.852 205.051 22.212C205.075 22.548 205.135 22.884 205.231 23.22C205.327 23.556 205.483 23.856 205.699 24.12C205.915 24.36 206.227 24.48 206.635 24.48C207.187 24.48 207.679 24.168 208.111 23.544C208.567 22.92 208.939 21.924 209.227 20.556H210.559C210.295 22.068 209.959 23.268 209.551 24.156C209.143 25.02 208.711 25.68 208.255 26.136C207.799 26.592 207.343 26.88 206.887 27C206.431 27.144 206.011 27.216 205.627 27.216C204.859 27.216 204.211 27.072 203.683 26.784C203.155 26.472 202.723 26.064 202.387 25.56C202.051 25.056 201.799 24.468 201.631 23.796C201.487 23.124 201.415 22.428 201.415 21.708C201.415 21.492 201.415 21.096 201.415 20.52C201.439 19.92 201.451 19.284 201.451 18.612C201.475 17.94 201.487 17.304 201.487 16.704C201.511 16.104 201.523 15.684 201.523 15.444C201.523 14.676 201.463 14.04 201.343 13.536C201.223 13.032 201.055 12.636 200.839 12.348C200.623 12.06 200.371 11.856 200.083 11.736C199.819 11.616 199.531 11.556 199.219 11.556C198.475 11.556 197.827 11.856 197.275 12.456C196.747 13.056 196.315 14.064 195.979 15.48V27H192.379V2.304L195.979 1.8Z" fill="#ED028C"/>
<path d="M215.771 8.82C216.611 8.82 217.343 8.94 217.967 9.18C218.591 9.42 219.119 9.756 219.551 10.188C220.007 10.596 220.367 11.1 220.631 11.7C220.919 12.276 221.135 12.9 221.279 13.572C221.951 13.572 222.431 13.368 222.719 12.96C223.007 12.528 223.211 12.132 223.331 11.772H224.375C224.183 12.564 223.859 13.38 223.403 14.22C222.971 15.036 222.359 15.648 221.567 16.056C221.615 16.344 221.639 16.632 221.639 16.92C221.639 17.184 221.639 17.46 221.639 17.748C221.639 20.7 221.099 23.016 220.019 24.696C218.939 26.376 217.427 27.216 215.483 27.216C214.691 27.216 213.887 27.072 213.071 26.784C212.279 26.496 211.559 26.016 210.911 25.344C210.263 24.672 209.735 23.808 209.327 22.752C208.943 21.696 208.751 20.388 208.751 18.828C208.751 17.772 208.859 16.656 209.075 15.48C209.315 14.304 209.699 13.224 210.227 12.24C210.779 11.256 211.499 10.44 212.387 9.792C213.299 9.144 214.427 8.82 215.771 8.82ZM216.131 24.48C217.403 24.48 218.339 23.856 218.939 22.608C219.539 21.336 219.839 19.548 219.839 17.244C219.839 17.124 219.827 17.004 219.803 16.884C219.803 16.74 219.803 16.608 219.803 16.488C219.131 16.488 218.639 16.308 218.327 15.948C218.015 15.564 217.859 15.024 217.859 14.328C217.859 13.848 217.979 13.476 218.219 13.212C218.459 12.924 218.783 12.756 219.191 12.708C218.903 12.012 218.543 11.52 218.111 11.232C217.679 10.944 217.211 10.8 216.707 10.8C215.963 10.8 215.327 11.052 214.799 11.556C214.295 12.036 213.875 12.66 213.539 13.428C213.227 14.196 212.999 15.048 212.855 15.984C212.711 16.896 212.639 17.796 212.639 18.684C212.639 19.86 212.747 20.82 212.963 21.564C213.179 22.308 213.455 22.896 213.791 23.328C214.127 23.76 214.499 24.06 214.907 24.228C215.315 24.396 215.723 24.48 216.131 24.48Z" fill="#ED028C"/>
<path d="M0 44L90 41.4019V46.5981L0 44Z" fill="#ED028C"/>
<path d="M225 44L135 46.5981V41.4019L225 44Z" fill="#ED028C"/>
<path d="M100 44.5C100 45.8807 98.8807 47 97.5 47C96.1193 47 95 45.8807 95 44.5C95 43.1193 96.1193 42 97.5 42C98.8807 42 100 43.1193 100 44.5Z" fill="#ED028C"/>
<path d="M129 44.5C129 45.8807 127.881 47 126.5 47C125.119 47 124 45.8807 124 44.5C124 43.1193 125.119 42 126.5 42C127.881 42 129 43.1193 129 44.5Z" fill="#ED028C"/>
<path d="M116 44C116 46.2091 114.209 48 112 48C109.791 48 108 46.2091 108 44C108 41.7909 109.791 40 112 40C114.209 40 116 41.7909 116 44Z" fill="#ED028C"/>
</svg>
