<svg width="217" height="40" viewBox="0 0 217 40" fill="none" xmlns="http://www.w3.org/2000/svg">
<path d="M216 36L132.75 37.7321V34.268L216 36Z" fill="#ED028C"/>
<path d="M0 36L84.75 34.268V37.7321L0 36Z" fill="#ED028C"/>
<path d="M123 35.5C123 36.8807 121.881 38 120.5 38C119.119 38 118 36.8807 118 35.5C118 34.1193 119.119 33 120.5 33C121.881 33 123 34.1193 123 35.5Z" fill="#ED028C"/>
<path d="M100 35.5C100 36.8807 98.8807 38 97.5 38C96.1193 38 95 36.8807 95 35.5C95 34.1193 96.1193 33 97.5 33C98.8807 33 100 34.1193 100 35.5Z" fill="#ED028C"/>
<path d="M113 36C113 38.2091 111.209 40 109 40C106.791 40 105 38.2091 105 36C105 33.7909 106.791 32 109 32C111.209 32 113 33.7909 113 36Z" fill="#ED028C"/>
<path d="M15.84 4.968C15.84 5.928 15.636 6.672 15.228 7.2C14.844 7.728 14.328 7.992 13.68 7.992C13.344 7.992 13.056 7.932 12.816 7.812C12.6 7.692 12.372 7.5 12.132 7.236C12.468 6.996 12.72 6.648 12.888 6.192C13.08 5.736 13.176 5.256 13.176 4.752C13.176 4.344 13.104 3.936 12.96 3.528C12.84 3.12 12.636 2.76 12.348 2.448C12.06 2.112 11.7 1.848 11.268 1.656C10.836 1.44 10.32 1.332 9.72 1.332C9.096 1.332 8.532 1.452 8.028 1.692C7.548 1.908 7.14 2.22 6.804 2.628C6.492 3.012 6.252 3.468 6.084 3.996C5.916 4.524 5.832 5.088 5.832 5.688C5.832 6.84 6.108 7.764 6.66 8.46C7.236 9.156 7.944 9.744 8.784 10.224C9.624 10.704 10.536 11.16 11.52 11.592C12.528 12.024 13.452 12.564 14.292 13.212C15.132 13.836 15.828 14.64 16.38 15.624C16.956 16.584 17.244 17.868 17.244 19.476C17.244 20.916 17.004 22.152 16.524 23.184C16.044 24.192 15.408 25.008 14.616 25.632C13.848 26.256 12.96 26.712 11.952 27C10.944 27.288 9.912 27.432 8.856 27.432C7.92 27.432 6.996 27.324 6.084 27.108C5.172 26.892 4.356 26.556 3.636 26.1C2.916 25.62 2.328 25.02 1.872 24.3C1.44 23.556 1.224 22.668 1.224 21.636C1.224 21.036 1.308 20.424 1.476 19.8C1.644 19.176 1.884 18.612 2.196 18.108C2.532 17.604 2.94 17.196 3.42 16.884C3.924 16.548 4.5 16.38 5.148 16.38C5.676 16.38 6.12 16.524 6.48 16.812C6.864 17.1 7.2 17.64 7.488 18.432C6.912 18.456 6.432 18.576 6.048 18.792C5.688 19.008 5.4 19.272 5.184 19.584C4.968 19.896 4.812 20.232 4.716 20.592C4.644 20.952 4.608 21.288 4.608 21.6C4.608 22.248 4.752 22.812 5.04 23.292C5.328 23.772 5.688 24.18 6.12 24.516C6.576 24.828 7.056 25.068 7.56 25.236C8.088 25.38 8.592 25.452 9.072 25.452C10.176 25.452 11.088 25.032 11.808 24.192C12.528 23.352 12.888 22.14 12.888 20.556C12.888 19.212 12.624 18.156 12.096 17.388C11.592 16.596 10.944 15.936 10.152 15.408C9.36 14.88 8.508 14.424 7.596 14.04C6.708 13.656 5.868 13.2 5.076 12.672C4.284 12.144 3.624 11.472 3.096 10.656C2.592 9.816 2.34 8.7 2.34 7.308C2.34 6.108 2.544 5.052 2.952 4.14C3.36 3.228 3.888 2.472 4.536 1.872C5.208 1.248 5.976 0.792001 6.84 0.504C7.728 0.192001 8.64 0.0360017 9.576 0.0360017C9.984 0.0360017 10.536 0.0840011 11.232 0.18C11.952 0.276 12.648 0.492 13.32 0.828C14.016 1.164 14.604 1.668 15.084 2.34C15.588 2.988 15.84 3.864 15.84 4.968Z" fill="#ED028C"/>
<path d="M31.5779 9V21.24C31.5779 21.528 31.5899 21.864 31.6139 22.248C31.6379 22.608 31.6979 22.956 31.7939 23.292C31.9139 23.628 32.0819 23.916 32.2979 24.156C32.5379 24.372 32.8739 24.48 33.3059 24.48C33.4979 24.48 33.7019 24.456 33.9179 24.408C34.1579 24.36 34.3499 24.312 34.4939 24.264C34.5179 24.384 34.5299 24.492 34.5299 24.588C34.5539 24.684 34.5659 24.792 34.5659 24.912C34.5659 25.632 34.2899 26.196 33.7379 26.604C33.1859 27.012 32.5619 27.216 31.8659 27.216C31.1219 27.216 30.4499 26.964 29.8499 26.46C29.2499 25.932 28.8419 25.056 28.6259 23.832C28.1699 25.008 27.5699 25.872 26.8259 26.424C26.0819 26.952 25.3019 27.216 24.4859 27.216C23.7899 27.216 23.1299 27.12 22.5059 26.928C21.8819 26.736 21.3419 26.424 20.8859 25.992C20.4299 25.536 20.0699 24.96 19.8059 24.264C19.5419 23.544 19.4099 22.668 19.4099 21.636V9H23.0099V21.24C23.0099 22.416 23.2139 23.256 23.6219 23.76C24.0299 24.24 24.5459 24.48 25.1699 24.48C25.5059 24.48 25.8419 24.396 26.1779 24.228C26.5139 24.036 26.8139 23.772 27.0779 23.436C27.3419 23.1 27.5579 22.692 27.7259 22.212C27.8939 21.732 27.9779 21.18 27.9779 20.556V9H31.5779Z" fill="#ED028C"/>
<path d="M47.8418 23.94C47.6498 23.892 47.4937 23.772 47.3737 23.58C47.2537 23.388 47.1938 23.196 47.1938 23.004C47.1938 22.62 47.3378 22.332 47.6258 22.14C47.9378 21.924 48.2858 21.816 48.6698 21.816C49.1977 21.816 49.6778 21.996 50.1098 22.356C50.5418 22.716 50.7578 23.244 50.7578 23.94C50.7578 24.3 50.6617 24.66 50.4697 25.02C50.2777 25.38 50.0018 25.704 49.6418 25.992C49.2818 26.28 48.8498 26.52 48.3458 26.712C47.8418 26.904 47.2778 27 46.6538 27H37.2217L44.9977 10.944H41.9017C41.3737 10.944 40.8938 10.98 40.4618 11.052C40.0538 11.1 39.8498 11.232 39.8498 11.448C39.8498 11.688 39.9457 11.88 40.1377 12.024C40.3537 12.168 40.4618 12.36 40.4618 12.6C40.4618 12.864 40.3058 13.116 39.9938 13.356C39.7058 13.596 39.3218 13.716 38.8418 13.716C38.1698 13.716 37.6538 13.464 37.2938 12.96C36.9578 12.432 36.7897 11.82 36.7897 11.124C36.7897 10.5 37.0537 9.996 37.5817 9.612C38.1337 9.204 39.1057 9 40.4977 9H49.4258L41.7218 24.48C41.8658 24.48 42.1418 24.492 42.5498 24.516C42.9818 24.54 43.4378 24.564 43.9178 24.588C44.3978 24.612 44.8658 24.636 45.3218 24.66C45.7778 24.684 46.1257 24.696 46.3657 24.696C46.7977 24.696 47.1337 24.624 47.3737 24.48C47.6377 24.336 47.7938 24.156 47.8418 23.94Z" fill="#ED028C"/>
<path d="M64.44 9V21.24C64.44 21.48 64.452 21.78 64.476 22.14C64.5 22.5 64.56 22.86 64.656 23.22C64.776 23.556 64.944 23.856 65.16 24.12C65.376 24.36 65.676 24.48 66.06 24.48C67.236 24.48 68.1 23.172 68.652 20.556H69.984C69.72 22.068 69.384 23.268 68.976 24.156C68.568 25.02 68.136 25.68 67.68 26.136C67.224 26.592 66.756 26.88 66.276 27C65.796 27.144 65.364 27.216 64.98 27.216C64.428 27.216 63.948 27.12 63.54 26.928C63.156 26.736 62.82 26.484 62.532 26.172C62.268 25.86 62.052 25.5 61.884 25.092C61.716 24.684 61.584 24.252 61.488 23.796C61.128 24.732 60.54 25.536 59.724 26.208C58.932 26.88 57.96 27.216 56.808 27.216C56.088 27.216 55.356 27.072 54.612 26.784C53.892 26.496 53.232 26.028 52.632 25.38C52.056 24.708 51.576 23.856 51.192 22.824C50.832 21.768 50.652 20.484 50.652 18.972C50.652 17.868 50.772 16.716 51.012 15.516C51.276 14.316 51.684 13.224 52.236 12.24C52.788 11.256 53.496 10.44 54.36 9.792C55.224 9.144 56.268 8.82 57.492 8.82C57.78 8.82 58.08 8.856 58.392 8.928C58.728 8.976 59.04 9.072 59.328 9.216C59.64 9.36 59.928 9.564 60.192 9.828C60.456 10.068 60.672 10.368 60.84 10.728V9H64.44ZM57.708 24.48C58.068 24.48 58.428 24.384 58.788 24.192C59.172 23.976 59.508 23.7 59.796 23.364C60.108 23.004 60.36 22.584 60.552 22.104C60.744 21.624 60.84 21.108 60.84 20.556V12.348C60.672 11.964 60.408 11.616 60.048 11.304C59.712 10.968 59.268 10.8 58.716 10.8C57.948 10.8 57.288 11.064 56.736 11.592C56.184 12.096 55.74 12.744 55.404 13.536C55.068 14.304 54.816 15.156 54.648 16.092C54.504 17.004 54.432 17.88 54.432 18.72C54.432 20.784 54.708 22.26 55.26 23.148C55.836 24.036 56.652 24.48 57.708 24.48Z" fill="#ED028C"/>
<path d="M72.2287 9V11.736C72.5887 11.088 72.9487 10.572 73.3087 10.188C73.6927 9.78 74.0767 9.48 74.4607 9.288C74.8447 9.096 75.2047 8.976 75.5407 8.928C75.9007 8.856 76.2367 8.82 76.5487 8.82C77.6287 8.82 78.4927 9.024 79.1407 9.432C79.8127 9.84 80.3167 10.368 80.6527 11.016C80.9887 11.64 81.2047 12.336 81.3007 13.104C81.4207 13.848 81.4807 14.568 81.4807 15.264C81.4807 15.696 81.4687 16.176 81.4447 16.704C81.4207 17.208 81.3967 17.736 81.3727 18.288C81.3487 18.816 81.3247 19.356 81.3007 19.908C81.2767 20.436 81.2647 20.928 81.2647 21.384C81.2647 21.576 81.2767 21.852 81.3007 22.212C81.3247 22.548 81.3847 22.884 81.4807 23.22C81.5767 23.556 81.7327 23.856 81.9487 24.12C82.1647 24.36 82.4767 24.48 82.8847 24.48C83.4367 24.48 83.9287 24.168 84.3607 23.544C84.8167 22.92 85.1887 21.924 85.4767 20.556H86.8087C86.5447 22.068 86.2087 23.268 85.8007 24.156C85.3927 25.02 84.9607 25.68 84.5047 26.136C84.0487 26.592 83.5927 26.88 83.1367 27C82.6807 27.144 82.2607 27.216 81.8767 27.216C81.1087 27.216 80.4607 27.072 79.9327 26.784C79.4047 26.472 78.9727 26.064 78.6367 25.56C78.3007 25.056 78.0487 24.468 77.8807 23.796C77.7367 23.124 77.6647 22.428 77.6647 21.708C77.6647 21.492 77.6647 21.096 77.6647 20.52C77.6887 19.92 77.7007 19.284 77.7007 18.612C77.7247 17.94 77.7367 17.304 77.7367 16.704C77.7607 16.104 77.7727 15.684 77.7727 15.444C77.7727 14.676 77.7127 14.04 77.5927 13.536C77.4727 13.032 77.3047 12.636 77.0887 12.348C76.8727 12.06 76.6207 11.856 76.3327 11.736C76.0687 11.616 75.7807 11.556 75.4687 11.556C74.7247 11.556 74.0767 11.856 73.5247 12.456C72.9967 13.056 72.5647 14.064 72.2287 15.48V27H68.6287V9H72.2287Z" fill="#ED028C"/>
<path d="M98.7173 9V21.24C98.7173 21.528 98.7293 21.864 98.7533 22.248C98.7773 22.608 98.8373 22.956 98.9333 23.292C99.0533 23.628 99.2213 23.916 99.4373 24.156C99.6773 24.372 100.013 24.48 100.445 24.48C100.637 24.48 100.841 24.456 101.057 24.408C101.297 24.36 101.489 24.312 101.633 24.264C101.657 24.384 101.669 24.492 101.669 24.588C101.693 24.684 101.705 24.792 101.705 24.912C101.705 25.632 101.429 26.196 100.877 26.604C100.325 27.012 99.7013 27.216 99.0053 27.216C98.2613 27.216 97.5893 26.964 96.9893 26.46C96.3893 25.932 95.9813 25.056 95.7653 23.832C95.4053 24.768 94.8173 25.572 94.0013 26.244C93.1853 26.892 92.2013 27.216 91.0493 27.216C90.3293 27.216 89.5973 27.072 88.8533 26.784C88.1333 26.472 87.4853 25.992 86.9093 25.344C86.3333 24.696 85.8533 23.856 85.4693 22.824C85.1093 21.792 84.9293 20.544 84.9293 19.08C84.9293 17.952 85.0493 16.788 85.2893 15.588C85.5533 14.364 85.9493 13.26 86.4773 12.276C87.0293 11.268 87.7373 10.44 88.6013 9.792C89.4653 9.144 90.4973 8.82 91.6973 8.82C92.3213 8.82 92.9573 8.952 93.6053 9.216C94.2773 9.48 94.7813 9.984 95.1173 10.728V9H98.7173ZM91.8053 24.48C92.2613 24.48 92.6933 24.372 93.1013 24.156C93.5093 23.94 93.8573 23.652 94.1453 23.292C94.4573 22.932 94.6973 22.524 94.8653 22.068C95.0333 21.588 95.1173 21.084 95.1173 20.556V12.348C94.9493 11.94 94.6973 11.58 94.3613 11.268C94.0253 10.956 93.5453 10.8 92.9213 10.8C92.1533 10.8 91.5053 11.064 90.9773 11.592C90.4493 12.096 90.0173 12.744 89.6813 13.536C89.3453 14.328 89.0933 15.216 88.9253 16.2C88.7813 17.16 88.7093 18.084 88.7093 18.972C88.7093 20.916 89.0093 22.32 89.6093 23.184C90.2093 24.048 90.9413 24.48 91.8053 24.48Z" fill="#ED028C"/>
<path d="M126.721 3.744C125.953 3.744 125.161 3.684 124.345 3.564C123.553 3.42 122.749 3.264 121.933 3.096V11.34H127.261V13.464H121.933V27H118.045V2.448C117.925 2.424 117.805 2.412 117.685 2.412C117.589 2.412 117.481 2.412 117.361 2.412C116.737 2.412 116.149 2.496 115.597 2.664C115.045 2.832 114.565 3.12 114.157 3.528C113.773 3.936 113.461 4.488 113.221 5.184C113.005 5.856 112.897 6.708 112.897 7.74C112.897 9.036 113.053 10.128 113.365 11.016C113.701 11.88 114.085 12.492 114.517 12.852C111.661 12.852 110.233 11.28 110.233 8.136C110.233 6.984 110.425 5.916 110.809 4.932C111.193 3.948 111.793 3.096 112.609 2.376C113.425 1.632 114.457 1.056 115.705 0.648C116.977 0.216 118.489 0 120.241 0C120.841 0 121.405 0.0240004 121.933 0.0720012C122.485 0.120001 123.013 0.168001 123.517 0.216002C124.021 0.264001 124.537 0.312001 125.065 0.360002C125.593 0.408001 126.157 0.432001 126.757 0.432001C127.357 0.432001 127.921 0.408001 128.449 0.360002C128.977 0.288001 129.481 0.168001 129.961 0C129.913 0.840001 129.793 1.512 129.601 2.016C129.433 2.496 129.205 2.868 128.917 3.132C128.629 3.372 128.293 3.54 127.909 3.636C127.549 3.708 127.153 3.744 126.721 3.744Z" fill="#ED028C"/>
<path d="M140.541 13.5C140.541 15.18 139.845 16.584 138.453 17.712C137.085 18.84 135.177 19.536 132.729 19.8C132.825 20.76 132.993 21.54 133.233 22.14C133.497 22.74 133.809 23.22 134.169 23.58C134.529 23.916 134.937 24.156 135.393 24.3C135.873 24.42 136.365 24.48 136.869 24.48C138.021 24.48 139.101 24.18 140.109 23.58C141.117 22.98 141.933 21.972 142.557 20.556H143.709C143.397 21.444 142.965 22.296 142.413 23.112C141.861 23.904 141.213 24.612 140.469 25.236C139.725 25.836 138.921 26.316 138.057 26.676C137.193 27.036 136.305 27.216 135.393 27.216C134.553 27.216 133.737 27.072 132.945 26.784C132.177 26.496 131.493 26.028 130.893 25.38C130.293 24.708 129.801 23.844 129.417 22.788C129.057 21.732 128.877 20.436 128.877 18.9C128.877 17.892 128.985 16.8 129.201 15.624C129.441 14.448 129.825 13.356 130.353 12.348C130.905 11.34 131.613 10.5 132.477 9.828C133.365 9.156 134.457 8.82 135.753 8.82C136.353 8.82 136.929 8.892 137.481 9.036C138.057 9.156 138.573 9.396 139.029 9.756C139.485 10.092 139.845 10.56 140.109 11.16C140.397 11.76 140.541 12.54 140.541 13.5ZM132.693 18.396C134.397 18.132 135.741 17.532 136.725 16.596C137.733 15.66 138.237 14.508 138.237 13.14C138.237 12.228 138.081 11.58 137.769 11.196C137.457 10.788 137.013 10.584 136.437 10.584C135.813 10.584 135.261 10.824 134.781 11.304C134.325 11.784 133.941 12.408 133.629 13.176C133.317 13.92 133.077 14.76 132.909 15.696C132.765 16.608 132.693 17.508 132.693 18.396Z" fill="#ED028C"/>
<path d="M146.127 9V12.024C146.415 11.592 146.691 11.184 146.955 10.8C147.243 10.416 147.555 10.08 147.891 9.792C148.227 9.504 148.599 9.276 149.007 9.108C149.415 8.916 149.871 8.82 150.375 8.82C151.191 8.82 151.791 9.036 152.175 9.468C152.559 9.876 152.751 10.38 152.751 10.98C152.751 11.34 152.691 11.64 152.571 11.88C152.451 12.12 152.307 12.312 152.139 12.456C151.971 12.6 151.791 12.708 151.599 12.78C151.407 12.828 151.239 12.852 151.095 12.852C150.879 12.852 150.699 12.804 150.555 12.708C150.435 12.612 150.303 12.516 150.159 12.42C150.039 12.3 149.895 12.192 149.727 12.096C149.559 12 149.343 11.952 149.079 11.952C148.527 11.952 147.999 12.144 147.495 12.528C146.991 12.912 146.535 13.32 146.127 13.752V27H142.527V9H146.127Z" fill="#ED028C"/>
<path d="M158.221 9V12.024C158.509 11.592 158.785 11.184 159.049 10.8C159.337 10.416 159.649 10.08 159.985 9.792C160.321 9.504 160.693 9.276 161.101 9.108C161.509 8.916 161.965 8.82 162.469 8.82C163.285 8.82 163.885 9.036 164.269 9.468C164.653 9.876 164.845 10.38 164.845 10.98C164.845 11.34 164.785 11.64 164.665 11.88C164.545 12.12 164.401 12.312 164.233 12.456C164.065 12.6 163.885 12.708 163.693 12.78C163.501 12.828 163.333 12.852 163.189 12.852C162.973 12.852 162.793 12.804 162.649 12.708C162.529 12.612 162.397 12.516 162.253 12.42C162.133 12.3 161.989 12.192 161.821 12.096C161.653 12 161.437 11.952 161.173 11.952C160.621 11.952 160.093 12.144 159.589 12.528C159.085 12.912 158.629 13.32 158.221 13.752V27H154.621V9H158.221Z" fill="#ED028C"/>
<path d="M177.983 13.5C177.983 15.18 177.287 16.584 175.895 17.712C174.527 18.84 172.619 19.536 170.171 19.8C170.267 20.76 170.435 21.54 170.675 22.14C170.939 22.74 171.251 23.22 171.611 23.58C171.971 23.916 172.379 24.156 172.835 24.3C173.315 24.42 173.807 24.48 174.311 24.48C175.463 24.48 176.543 24.18 177.551 23.58C178.559 22.98 179.375 21.972 179.999 20.556H181.151C180.839 21.444 180.407 22.296 179.855 23.112C179.303 23.904 178.655 24.612 177.911 25.236C177.167 25.836 176.363 26.316 175.499 26.676C174.635 27.036 173.747 27.216 172.835 27.216C171.995 27.216 171.179 27.072 170.387 26.784C169.619 26.496 168.935 26.028 168.335 25.38C167.735 24.708 167.243 23.844 166.859 22.788C166.499 21.732 166.319 20.436 166.319 18.9C166.319 17.892 166.427 16.8 166.643 15.624C166.883 14.448 167.267 13.356 167.795 12.348C168.347 11.34 169.055 10.5 169.919 9.828C170.807 9.156 171.899 8.82 173.195 8.82C173.795 8.82 174.371 8.892 174.923 9.036C175.499 9.156 176.015 9.396 176.471 9.756C176.927 10.092 177.287 10.56 177.551 11.16C177.839 11.76 177.983 12.54 177.983 13.5ZM170.135 18.396C171.839 18.132 173.183 17.532 174.167 16.596C175.175 15.66 175.679 14.508 175.679 13.14C175.679 12.228 175.523 11.58 175.211 11.196C174.899 10.788 174.455 10.584 173.879 10.584C173.255 10.584 172.703 10.824 172.223 11.304C171.767 11.784 171.383 12.408 171.071 13.176C170.759 13.92 170.519 14.76 170.351 15.696C170.207 16.608 170.135 17.508 170.135 18.396Z" fill="#ED028C"/>
<path d="M183.605 9V21.24C183.605 21.48 183.617 21.78 183.641 22.14C183.665 22.5 183.724 22.86 183.82 23.22C183.94 23.556 184.108 23.856 184.324 24.12C184.54 24.36 184.841 24.48 185.225 24.48C186.401 24.48 187.264 23.172 187.816 20.556H189.148C188.884 22.068 188.549 23.268 188.141 24.156C187.733 25.02 187.3 25.68 186.844 26.136C186.388 26.592 185.921 26.88 185.441 27C184.961 27.144 184.529 27.216 184.145 27.216C183.305 27.216 182.62 27.06 182.092 26.748C181.564 26.412 181.145 25.992 180.833 25.488C180.521 24.984 180.304 24.42 180.184 23.796C180.064 23.172 180.005 22.572 180.005 21.996V9H183.605ZM179.357 3.816C179.357 3.168 179.584 2.604 180.04 2.124C180.496 1.644 181.06 1.404 181.732 1.404C182.38 1.404 182.944 1.644 183.424 2.124C183.904 2.604 184.145 3.168 184.145 3.816C184.145 4.488 183.904 5.052 183.424 5.508C182.944 5.964 182.38 6.192 181.732 6.192C181.06 6.192 180.496 5.964 180.04 5.508C179.584 5.052 179.357 4.488 179.357 3.816Z" fill="#ED028C"/>
<path d="M191.373 9V12.024C191.661 11.592 191.937 11.184 192.201 10.8C192.489 10.416 192.801 10.08 193.137 9.792C193.473 9.504 193.845 9.276 194.253 9.108C194.661 8.916 195.117 8.82 195.621 8.82C196.437 8.82 197.037 9.036 197.421 9.468C197.805 9.876 197.997 10.38 197.997 10.98C197.997 11.34 197.937 11.64 197.817 11.88C197.697 12.12 197.553 12.312 197.385 12.456C197.217 12.6 197.037 12.708 196.845 12.78C196.653 12.828 196.485 12.852 196.341 12.852C196.125 12.852 195.945 12.804 195.801 12.708C195.681 12.612 195.549 12.516 195.405 12.42C195.285 12.3 195.141 12.192 194.973 12.096C194.805 12 194.589 11.952 194.325 11.952C193.773 11.952 193.245 12.144 192.741 12.528C192.237 12.912 191.781 13.32 191.373 13.752V27H187.773V9H191.373Z" fill="#ED028C"/>
<path d="M213.151 9V21.24C213.151 21.528 213.163 21.864 213.187 22.248C213.211 22.608 213.271 22.956 213.367 23.292C213.487 23.628 213.655 23.916 213.871 24.156C214.111 24.372 214.447 24.48 214.879 24.48C215.071 24.48 215.275 24.456 215.491 24.408C215.731 24.36 215.923 24.312 216.067 24.264C216.091 24.384 216.103 24.492 216.103 24.588C216.127 24.684 216.139 24.792 216.139 24.912C216.139 25.632 215.863 26.196 215.311 26.604C214.759 27.012 214.135 27.216 213.439 27.216C212.695 27.216 212.023 26.964 211.423 26.46C210.823 25.932 210.415 25.056 210.199 23.832C209.839 24.768 209.251 25.572 208.435 26.244C207.619 26.892 206.635 27.216 205.483 27.216C204.763 27.216 204.031 27.072 203.287 26.784C202.567 26.472 201.919 25.992 201.343 25.344C200.767 24.696 200.287 23.856 199.903 22.824C199.543 21.792 199.363 20.544 199.363 19.08C199.363 17.952 199.483 16.788 199.723 15.588C199.987 14.364 200.383 13.26 200.911 12.276C201.463 11.268 202.171 10.44 203.035 9.792C203.899 9.144 204.931 8.82 206.131 8.82C206.755 8.82 207.391 8.952 208.039 9.216C208.711 9.48 209.215 9.984 209.551 10.728V9H213.151ZM206.239 24.48C206.695 24.48 207.127 24.372 207.535 24.156C207.943 23.94 208.291 23.652 208.579 23.292C208.891 22.932 209.131 22.524 209.299 22.068C209.467 21.588 209.551 21.084 209.551 20.556V12.348C209.383 11.94 209.131 11.58 208.795 11.268C208.459 10.956 207.979 10.8 207.355 10.8C206.587 10.8 205.939 11.064 205.411 11.592C204.883 12.096 204.451 12.744 204.115 13.536C203.779 14.328 203.527 15.216 203.359 16.2C203.215 17.16 203.143 18.084 203.143 18.972C203.143 20.916 203.443 22.32 204.043 23.184C204.643 24.048 205.375 24.48 206.239 24.48Z" fill="#ED028C"/>
</svg>
