<svg width="105" height="63" viewBox="0 0 105 63" fill="none" xmlns="http://www.w3.org/2000/svg">
<path d="M105 59.5L65.625 62.5311V56.4689L105 59.5Z" fill="#ED028C"/>
<path d="M0 59.5L39.375 56.4689V62.5311L0 59.5Z" fill="#ED028C"/>
<path d="M45.5 59.5C45.5 60.4665 44.7165 61.25 43.75 61.25C42.7835 61.25 42 60.4665 42 59.5C42 58.5335 42.7835 57.75 43.75 57.75C44.7165 57.75 45.5 58.5335 45.5 59.5Z" fill="#ED028C"/>
<path d="M63 59.5C63 60.4665 62.2165 61.25 61.25 61.25C60.2835 61.25 59.5 60.4665 59.5 59.5C59.5 58.5335 60.2835 57.75 61.25 57.75C62.2165 57.75 63 58.5335 63 59.5Z" fill="#ED028C"/>
<path d="M56 59.5C56 61.433 54.433 63 52.5 63C50.567 63 49 61.433 49 59.5C49 57.567 50.567 56 52.5 56C54.433 56 56 57.567 56 59.5Z" fill="#ED028C"/>
<path d="M39.97 8.694C39.97 10.374 39.613 11.676 38.899 12.6C38.227 13.524 37.324 13.986 36.19 13.986C35.602 13.986 35.098 13.881 34.678 13.671C34.3 13.461 33.901 13.125 33.481 12.663C34.069 12.243 34.51 11.634 34.804 10.836C35.14 10.038 35.308 9.198 35.308 8.316C35.308 7.602 35.182 6.888 34.93 6.174C34.72 5.46 34.363 4.83 33.859 4.284C33.355 3.696 32.725 3.234 31.969 2.898C31.213 2.52 30.31 2.331 29.26 2.331C28.168 2.331 27.181 2.541 26.299 2.961C25.459 3.339 24.745 3.885 24.157 4.599C23.611 5.271 23.191 6.069 22.897 6.993C22.603 7.917 22.456 8.904 22.456 9.954C22.456 11.97 22.939 13.587 23.905 14.805C24.913 16.023 26.152 17.052 27.622 17.892C29.092 18.732 30.688 19.53 32.41 20.286C34.174 21.042 35.791 21.987 37.261 23.121C38.731 24.213 39.949 25.62 40.915 27.342C41.923 29.022 42.427 31.269 42.427 34.083C42.427 36.603 42.007 38.766 41.167 40.572C40.327 42.336 39.214 43.764 37.828 44.856C36.484 45.948 34.93 46.746 33.166 47.25C31.402 47.754 29.596 48.006 27.748 48.006C26.11 48.006 24.493 47.817 22.897 47.439C21.301 47.061 19.873 46.473 18.613 45.675C17.353 44.835 16.324 43.785 15.526 42.525C14.77 41.223 14.392 39.669 14.392 37.863C14.392 36.813 14.539 35.742 14.833 34.65C15.127 33.558 15.547 32.571 16.093 31.689C16.681 30.807 17.395 30.093 18.235 29.547C19.117 28.959 20.125 28.665 21.259 28.665C22.183 28.665 22.96 28.917 23.59 29.421C24.262 29.925 24.85 30.87 25.354 32.256C24.346 32.298 23.506 32.508 22.834 32.886C22.204 33.264 21.7 33.726 21.322 34.272C20.944 34.818 20.671 35.406 20.503 36.036C20.377 36.666 20.314 37.254 20.314 37.8C20.314 38.934 20.566 39.921 21.07 40.761C21.574 41.601 22.204 42.315 22.96 42.903C23.758 43.449 24.598 43.869 25.48 44.163C26.404 44.415 27.286 44.541 28.126 44.541C30.058 44.541 31.654 43.806 32.914 42.336C34.174 40.866 34.804 38.745 34.804 35.973C34.804 33.621 34.342 31.773 33.418 30.429C32.536 29.043 31.402 27.888 30.016 26.964C28.63 26.04 27.139 25.242 25.543 24.57C23.989 23.898 22.519 23.1 21.133 22.176C19.747 21.252 18.592 20.076 17.668 18.648C16.786 17.178 16.345 15.225 16.345 12.789C16.345 10.689 16.702 8.841 17.416 7.245C18.13 5.649 19.054 4.326 20.188 3.276C21.364 2.184 22.708 1.386 24.22 0.882C25.774 0.336002 27.37 0.0630029 29.008 0.0630029C29.722 0.0630029 30.688 0.147002 31.906 0.315C33.166 0.483 34.384 0.861 35.56 1.449C36.778 2.037 37.807 2.919 38.647 4.095C39.529 5.229 39.97 6.762 39.97 8.694Z" fill="#ED028C"/>
<path d="M65.6843 47.25L60.0773 14.868L54.9743 47.25H51.1943L58.1243 3.15C55.4783 3.738 53.4413 5.019 52.0133 6.993C50.5853 8.925 49.8713 11.655 49.8713 15.183C49.8713 16.611 49.9553 17.787 50.1233 18.711C50.3333 19.593 50.5643 20.307 50.8163 20.853C51.0683 21.399 51.3203 21.798 51.5723 22.05C51.8663 22.26 52.0763 22.407 52.2023 22.491C49.9343 22.491 48.1073 21.924 46.7213 20.79C45.3353 19.614 44.6423 17.787 44.6423 15.309C44.6423 13.251 45.1463 11.298 46.1543 9.45C47.1623 7.56 48.4433 5.922 49.9973 4.536C51.5513 3.15 53.2523 2.058 55.1003 1.26C56.9903 0.420001 58.8173 0 60.5813 0C61.2533 0 61.9043 0.0630004 62.5343 0.189001C63.2063 0.315002 63.8363 0.546002 64.4243 0.882L70.7243 37.485L78.0953 0.882H85.2773L88.8053 47.25H81.6233L79.1033 14.238L72.4253 47.25H65.6843Z" fill="#ED028C"/>
</svg>
