<svg width="64" height="95" viewBox="0 0 64 95" fill="none" xmlns="http://www.w3.org/2000/svg">
<path d="M60.9474 65.4211C60.9474 65.4211 50.4211 68.0527 32 68.0527C13.579 68.0527 3.05264 65.4211 3.05264 65.4211C3.05264 65.4211 18.8421 78.579 32 78.579C45.1579 78.579 60.9474 65.4211 60.9474 65.4211Z" fill="#FF80CA"/>
<path d="M32 46.621C17.4895 46.621 5.68422 34.7394 5.68422 20.1394C5.68422 12.6183 8.87896 5.42624 14.45 0.40519L17.9711 4.31309C13.5079 8.3394 10.9474 14.1078 10.9474 20.1394C10.9474 31.8394 20.3921 41.3578 32 41.3578C43.6079 41.3578 53.0526 31.8394 53.0526 20.1394C53.0526 14.1078 50.4921 8.34203 46.029 4.31572L49.5553 0.407822C55.1211 5.42887 58.3158 12.621 58.3158 20.1394C58.3158 34.7394 46.5105 46.621 32 46.621Z" fill="#FF80CA"/>
<path d="M28.3816 43.9894C28.3816 43.9894 14.1263 33.842 8.03421 14.1736C7.54737 14.6526 -3.5921 29.0815 2.22106 41.0078C8.03421 52.9315 28.3816 43.9894 28.3816 43.9894Z" fill="#EF209A"/>
<path d="M35.7895 43.9894C35.7895 43.9894 50.2053 31.5394 56.1369 14.1736C56.5632 14.9815 67.7632 29.0815 61.95 41.0078C56.1369 52.9315 35.7895 43.9894 35.7895 43.9894Z" fill="#EF209A"/>
<path d="M60.9474 65.421C60.9474 65.421 50.4211 73.3158 32 73.3158C13.579 73.3158 3.05264 65.421 3.05264 65.421C3.05264 65.421 22.0211 80.2237 26.7369 94.3684H37.2632C42.4158 76.9342 60.9474 65.421 60.9474 65.421Z" fill="#EF209A"/>
</svg>
