<svg width="19" height="24" viewBox="0 0 19 24" fill="none" xmlns="http://www.w3.org/2000/svg">
<path d="M9.5 10.5482C9.96973 10.5482 10.4289 10.4074 10.8195 10.1434C11.21 9.87946 11.5145 9.50431 11.6942 9.06538C11.874 8.62645 11.921 8.14347 11.8294 7.67751C11.7377 7.21155 11.5115 6.78353 11.1794 6.44759C10.8472 6.11165 10.424 5.88288 9.96334 5.79019C9.50263 5.69751 9.0251 5.74507 8.59113 5.92688C8.15715 6.10869 7.78623 6.41658 7.52526 6.8116C7.26429 7.20662 7.125 7.67105 7.125 8.14614C7.125 8.78321 7.37522 9.3942 7.82062 9.84468C8.26602 10.2952 8.87011 10.5482 9.5 10.5482ZM8.65687 18.8475C8.76727 18.9601 8.89861 19.0494 9.04332 19.1104C9.18802 19.1714 9.34324 19.2028 9.5 19.2028C9.65676 19.2028 9.81198 19.1714 9.95668 19.1104C10.1014 19.0494 10.2327 18.9601 10.3431 18.8475L15.2 13.9232C16.3281 12.7828 17.0964 11.3297 17.4079 9.74769C17.7193 8.16563 17.5599 6.52569 16.9498 5.03528C16.3396 3.54488 15.3061 2.27097 13.9801 1.37468C12.654 0.478398 11.0949 0 9.5 0C7.90509 0 6.346 0.478398 5.01993 1.37468C3.69386 2.27097 2.6604 3.54488 2.05024 5.03528C1.44009 6.52569 1.28066 8.16563 1.59211 9.74769C1.90357 11.3297 2.67193 12.7828 3.8 13.9232L8.65687 18.8475ZM3.83563 7.59365C3.91676 6.73732 4.18596 5.91013 4.62356 5.17247C5.06116 4.43481 5.65612 3.80531 6.365 3.32992C7.29624 2.7115 8.38596 2.38201 9.5 2.38201C10.614 2.38201 11.7038 2.7115 12.635 3.32992C13.3391 3.80368 13.9307 4.42937 14.3672 5.16199C14.8037 5.89461 15.0743 6.71596 15.1595 7.56697C15.2446 8.41799 15.1423 9.27751 14.8598 10.0837C14.5773 10.89 14.1216 11.6229 13.5256 12.2297L9.5 16.3013L5.47437 12.2297C4.87768 11.6287 4.42098 10.9008 4.13749 10.0988C3.85401 9.29683 3.75089 8.44102 3.83563 7.59365V7.59365ZM17.8125 21.5979H1.1875C0.872555 21.5979 0.57051 21.7244 0.347811 21.9497C0.125111 22.1749 0 22.4804 0 22.799C0 23.1175 0.125111 23.423 0.347811 23.6482C0.57051 23.8735 0.872555 24 1.1875 24H17.8125C18.1274 24 18.4295 23.8735 18.6522 23.6482C18.8749 23.423 19 23.1175 19 22.799C19 22.4804 18.8749 22.1749 18.6522 21.9497C18.4295 21.7244 18.1274 21.5979 17.8125 21.5979Z" fill="white"/>
</svg>
