<svg width="25" height="25" viewBox="0 0 25 25" fill="none" xmlns="http://www.w3.org/2000/svg">
<path d="M12.25 0.25C9.87662 0.25 7.55655 0.953788 5.58316 2.27236C3.60977 3.59094 2.0717 5.46508 1.16345 7.6578C0.255196 9.85051 0.0175556 12.2633 0.480578 14.5911C0.943601 16.9189 2.08649 19.057 3.76472 20.7353C5.44295 22.4135 7.58115 23.5564 9.90892 24.0194C12.2367 24.4824 14.6495 24.2448 16.8422 23.3365C19.0349 22.4283 20.9091 20.8902 22.2276 18.9168C23.5462 16.9434 24.25 14.6234 24.25 12.25C24.2465 9.06849 22.981 6.0183 20.7314 3.76863C18.4817 1.51896 15.4315 0.253538 12.25 0.25V0.25ZM12.25 21.85C10.3513 21.85 8.49524 21.287 6.91653 20.2321C5.33781 19.1772 4.10736 17.6779 3.38076 15.9238C2.65416 14.1696 2.46404 12.2393 2.83446 10.3771C3.20488 8.51491 4.11919 6.80436 5.46178 5.46177C6.80436 4.11919 8.51492 3.20488 10.3771 2.83446C12.2394 2.46404 14.1696 2.65415 15.9238 3.38076C17.6779 4.10736 19.1772 5.33781 20.2321 6.91652C21.287 8.49524 21.85 10.3513 21.85 12.25C21.8471 14.7952 20.8347 17.2353 19.035 19.035C17.2353 20.8347 14.7952 21.8471 12.25 21.85V21.85ZM14.7678 9.41055L13.45 10.1717V6.25C13.45 5.93174 13.3236 5.62651 13.0985 5.40147C12.8735 5.17643 12.5683 5.05 12.25 5.05C11.9317 5.05 11.6265 5.17643 11.4015 5.40147C11.1764 5.62651 11.05 5.93174 11.05 6.25V12.25C11.0501 12.4606 11.1055 12.6675 11.2109 12.8499C11.3162 13.0323 11.4677 13.1838 11.6501 13.2891C11.8325 13.3945 12.0394 13.4499 12.25 13.45C12.4606 13.4501 12.6675 13.3947 12.85 13.2894L15.9678 11.4894C16.1044 11.4107 16.2241 11.3058 16.3201 11.1808C16.4162 11.0557 16.4866 10.913 16.5275 10.7607C16.5683 10.6084 16.5788 10.4496 16.5583 10.2933C16.5377 10.137 16.4866 9.98624 16.4078 9.84969C16.3289 9.71314 16.224 9.59346 16.0989 9.49749C15.9738 9.40151 15.831 9.33113 15.6787 9.29034C15.5264 9.24956 15.3676 9.23919 15.2113 9.25981C15.055 9.28044 14.9043 9.33166 14.7678 9.41055Z" fill="white"/>
</svg>
